RobotoFlexCondensed-Bold.ufo
<glyph name="exclam" format="2">
  <advance width="680"/>
  <unicode hex="0021"/>
  <outline>
    <contour>
      <point x="160.26153846155" y="140.38205128206667" type="curve" smooth="yes"/>
      <point x="160" y="229"/>
      <point x="223" y="302"/>
      <point x="339.90822525153334" y="302.2641025640833" type="curve" smooth="yes"/>
      <point x="456" y="302"/>
      <point x="520" y="229"/>
      <point x="520.0472197338667" y="140.38205128206667" type="curve" smooth="yes"/>
      <point x="520" y="51"/>
      <point x="456" y="-22"/>
      <point x="340.1543790976833" y="-22.0" type="curve" smooth="yes"/>
      <point x="223" y="-22"/>
      <point x="160" y="51"/>
    </contour>
    <contour>
      <point x="212.50141317753332" y="461.22051282051666" type="line"/>
      <point x="190.9058305745" y="1456.0" type="line"/>
      <point x="488.33626095424995" y="1456.0" type="line"/>
      <point x="466.17913988966666" y="461.22051282051666" type="line"/>
    </contour>
  </outline>
</glyph>
<glyph name="D" format="2">
  <advance width="1277"/>
  <unicode hex="0044"/>
  <outline>
    <contour>
      <point x="155.0" y="0.0" type="line"/>
      <point x="155.0" y="1456.0" type="line"/>
      <point x="571.1700512820667" y="1456.0" type="line" smooth="yes"/>
      <point x="916" y="1456"/>
      <point x="1177" y="1235"/>
      <point x="1176.7722765336" y="773.8769230769001" type="curve" smooth="yes"/>
      <point x="1176.7722765336" y="682.73846153845" type="line" smooth="yes"/>
      <point x="1177" y="222"/>
      <point x="915" y="0"/>
      <point x="571.1700512820667" y="0.0" type="curve" smooth="yes"/>
    </contour>
    <contour>
      <point x="451.6085128205167" y="223.1205128205167" type="line"/>
      <point x="566.6162051282166" y="223.1205128205167" type="line" smooth="yes"/>
      <point x="749" y="223"/>
      <point x="872" y="348"/>
      <point x="872.4213333333333" y="676.4" type="curve" smooth="yes"/>
      <point x="872.4213333333333" y="779.35384615385" type="line" smooth="yes"/>
      <point x="872" y="1108"/>
      <point x="749" y="1232"/>
      <point x="566.6162051282166" y="1231.6487179487333" type="curve" smooth="yes"/>
      <point x="451.6085128205167" y="1231.6487179487333" type="line"/>
    </contour>
  </outline>
</glyph>
<glyph name="G" format="2">
  <advance width="1196"/>
  <unicode hex="0047"/>
  <outline>
    <contour>
      <point x="99.5" y="682.5" type="curve" smooth="yes"/>
      <point x="99.5" y="773.5" type="line" smooth="yes"/>
      <point x="100" y="1275"/>
      <point x="314" y="1486"/>
      <point x="648.7666666666667" y="1485.5" type="curve" smooth="yes"/>
      <point x="970" y="1486"/>
      <point x="1144" y="1314"/>
      <point x="1152.2666666666667" y="1021.2190476190476" type="curve" smooth="yes"/>
      <point x="1152.2666666666667" y="1008.5" type="line"/>
      <point x="852.3" y="1008.5" type="line"/>
      <point x="852.3" y="1019.5" type="line" smooth="yes"/>
      <point x="852" y="1177"/>
      <point x="789" y="1255"/>
      <point x="639.4" y="1255.3333333333333" type="curve" smooth="yes"/>
      <point x="478" y="1255"/>
      <point x="404" y="1161"/>
      <point x="403.9" y="848.1666666666666" type="curve" smooth="yes"/>
      <point x="403.9" y="607.8333333333334" type="line" smooth="yes"/>
      <point x="404" y="297"/>
      <point x="507" y="199"/>
      <point x="661.2333333333333" y="199.16666666666669" type="curve" smooth="yes"/>
      <point x="753" y="199"/>
      <point x="814" y="218"/>
      <point x="860.3" y="255.46666666666667" type="curve"/>
      <point x="860.3" y="541.6333333333333" type="line"/>
      <point x="663.6333333333333" y="541.6333333333333" type="line"/>
      <point x="663.6333333333333" y="764.8666666666667" type="line"/>
      <point x="1152.7666666666667" y="764.8666666666667" type="line"/>
      <point x="1152.7666666666667" y="154.6" type="line"/>
      <point x="1062" y="63"/>
      <point x="922" y="-30"/>
      <point x="655.4" y="-29.5" type="curve" smooth="yes"/>
      <point x="315" y="-30"/>
      <point x="100" y="146"/>
    </contour>
  </outline>
</glyph>
<glyph name="O" format="2">
  <advance width="1308"/>
  <unicode hex="004F"/>
  <outline>
    <contour>
      <point x="99.5" y="682.5" type="curve" smooth="yes"/>
      <point x="99.5" y="773.5" type="line" smooth="yes"/>
      <point x="100" y="1268"/>
      <point x="320" y="1486"/>
      <point x="652.3" y="1485.5" type="curve" smooth="yes"/>
      <point x="984" y="1486"/>
      <point x="1207" y="1268"/>
      <point x="1207.0333333333333" y="773.5" type="curve" smooth="yes"/>
      <point x="1207.0333333333333" y="682.5" type="line" smooth="yes"/>
      <point x="1207" y="188"/>
      <point x="984" y="-30"/>
      <point x="652.3" y="-29.5" type="curve" smooth="yes"/>
      <point x="320" y="-30"/>
      <point x="100" y="188"/>
    </contour>
    <contour>
      <point x="404.4" y="622.5" type="line" smooth="yes"/>
      <point x="404" y="316"/>
      <point x="492" y="201"/>
      <point x="652.3" y="200.66666666666669" type="curve" smooth="yes"/>
      <point x="813" y="201"/>
      <point x="902" y="316"/>
      <point x="901.5666666666666" y="622.5" type="curve" smooth="yes"/>
      <point x="901.5666666666666" y="834.0666666666666" type="line" smooth="yes"/>
      <point x="902" y="1141"/>
      <point x="813" y="1255"/>
      <point x="652.3" y="1254.8333333333333" type="curve" smooth="yes"/>
      <point x="492" y="1255"/>
      <point x="404" y="1141"/>
      <point x="404.4" y="834.0666666666666" type="curve" smooth="yes"/>
    </contour>
  </outline>
</glyph>
<glyph name="R" format="2">
  <advance width="1154"/>
  <unicode hex="0052"/>
  <outline>
    <contour>
      <point x="155.0" y="0.0" type="line"/>
      <point x="155.0" y="1456.0" type="line"/>
      <point x="602.3674547224999" y="1456.0" type="line" smooth="yes"/>
      <point x="904" y="1456"/>
      <point x="1080" y="1318"/>
      <point x="1080.5118649788833" y="997.5512820512666" type="curve" smooth="yes"/>
      <point x="1080" y="676"/>
      <point x="902" y="531"/>
      <point x="601.81360856865" y="530.8179487179333" type="curve" smooth="yes"/>
      <point x="452.83928205126665" y="530.8179487179333" type="line"/>
      <point x="452.83928205126665" y="0.0" type="line"/>
    </contour>
    <contour>
      <point x="452.83928205126665" y="752.2820512820666" type="line"/>
      <point x="591.8443777994" y="752.2820512820666" type="line" smooth="yes"/>
      <point x="730" y="752"/>
      <point x="782" y="839"/>
      <point x="782.7418136968666" y="994.9666666666667" type="curve" smooth="yes"/>
      <point x="783" y="1151"/>
      <point x="730" y="1233"/>
      <point x="591.8443777994" y="1233.0794871794833" type="curve" smooth="yes"/>
      <point x="452.83928205126665" y="1233.0794871794833" type="line"/>
    </contour>
    <contour>
      <point x="799.4245322947166" y="0.0" type="line"/>
      <point x="515.2219681921333" y="671.6923076923" type="line"/>
      <point x="833.8277052904833" y="671.6923076923" type="line"/>
      <point x="1129.5456540084167" y="0.0" type="line"/>
    </contour>
  </outline>
</glyph>
<glyph name="S" format="2">
  <advance width="1121"/>
  <unicode hex="0053"/>
  <outline>
    <contour>
      <point x="74.2153846154" y="402.73333333333335" type="curve" smooth="yes"/>
      <point x="74.2153846154" y="439.51538461539997" type="line"/>
      <point x="377.93158974356663" y="439.51538461539997" type="line"/>
      <point x="377.93158974356663" y="406.5487179487333" type="line" smooth="yes"/>
      <point x="378" y="266"/>
      <point x="447" y="198"/>
      <point x="567.9790256410333" y="197.79358974356666" type="curve" smooth="yes"/>
      <point x="688" y="198"/>
      <point x="753" y="268"/>
      <point x="753.0333333333333" y="373.76666666666665" type="curve" smooth="yes"/>
      <point x="753" y="485"/>
      <point x="723" y="519"/>
      <point x="498.3" y="614.5666666666667" type="curve" smooth="yes"/>
      <point x="270" y="709"/>
      <point x="91" y="827"/>
      <point x="90.31246932815" y="1074.1528075300332" type="curve" smooth="yes"/>
      <point x="90" y="1354"/>
      <point x="273" y="1485"/>
      <point x="561.0585128205166" y="1485.2615384615501" type="curve" smooth="yes"/>
      <point x="848" y="1485"/>
      <point x="1034" y="1334"/>
      <point x="1033.68753846155" y="1059.8820512820666" type="curve" smooth="yes"/>
      <point x="1033.68753846155" y="1024.14615384615" type="line"/>
      <point x="735.5867179487334" y="1024.14615384615" type="line"/>
      <point x="735.5867179487334" y="1056.3743589743667" type="line" smooth="yes"/>
      <point x="736" y="1178"/>
      <point x="677" y="1257"/>
      <point x="562.0666666666666" y="1257.3333333333333" type="curve" smooth="yes"/>
      <point x="440" y="1257"/>
      <point x="395" y="1196"/>
      <point x="394.56666666666666" y="1119.6285714285714" type="curve" smooth="yes"/>
      <point x="395" y="1032"/>
      <point x="422" y="979"/>
      <point x="646.5" y="874.3666666666667" type="curve" smooth="yes"/>
      <point x="867" y="773"/>
      <point x="1056" y="661"/>
      <point x="1056.3423037974499" y="396.29519636481666" type="curve" smooth="yes"/>
      <point x="1057" y="97"/>
      <point x="863" y="-29"/>
      <point x="568.5944102564333" y="-29.3846153846" type="curve" smooth="yes"/>
      <point x="276" y="-29"/>
      <point x="74" y="91"/>
    </contour>
  </outline>
</glyph>
<glyph name="g" format="2">
  <advance width="1092"/>
  <unicode hex="0067"/>
  <outline>
    <contour>
      <point x="131.66666666666666" y="-291.6333333333333" type="curve"/>
      <point x="230.0" y="-91.4" type="line"/>
      <point x="286" y="-156"/>
      <point x="386" y="-219"/>
      <point x="494.9666666666667" y="-219.33333333333334" type="curve" smooth="yes"/>
      <point x="601" y="-219"/>
      <point x="675" y="-127"/>
      <point x="674.8333333333334" y="60.5" type="curve" smooth="yes"/>
      <point x="674.8333333333334" y="93.0" type="line"/>
      <point x="634" y="20"/>
      <point x="558" y="-20"/>
      <point x="433.2" y="-19.5" type="curve" smooth="yes"/>
      <point x="213" y="-20"/>
      <point x="73" y="180"/>
      <point x="73.0" y="523.9285714285714" type="curve" smooth="yes"/>
      <point x="73.0" y="555.9285714285714" type="line" smooth="yes"/>
      <point x="73" y="886"/>
      <point x="221" y="1100"/>
      <point x="447.06666666666666" y="1099.857142857143" type="curve" smooth="yes"/>
      <point x="550" y="1100"/>
      <point x="643" y="1050"/>
      <point x="676.8333333333334" y="974.8571428571429" type="curve"/>
      <point x="680.2" y="974.8571428571429" type="line"/>
      <point x="685.6333333333333" y="1079.857142857143" type="line"/>
      <point x="962.3" y="1079.857142857143" type="line"/>
      <point x="962.3" y="68.5" type="line" smooth="yes"/>
      <point x="962" y="-258"/>
      <point x="771" y="-437"/>
      <point x="510.9666666666667" y="-437.0" type="curve" smooth="yes"/>
      <point x="351" y="-437"/>
      <point x="217" y="-376"/>
    </contour>
    <contour>
      <point x="367.9666666666667" y="473.1619047619048" type="line" smooth="yes"/>
      <point x="368" y="288"/>
      <point x="420" y="200"/>
      <point x="523.3" y="200.23333333333335" type="curve" smooth="yes"/>
      <point x="608" y="200"/>
      <point x="662" y="259"/>
      <point x="674.3333333333334" y="324.4" type="curve"/>
      <point x="674.3333333333334" y="749.4571428571428" type="line"/>
      <point x="656" y="814"/>
      <point x="606" y="880"/>
      <point x="533.2333333333333" y="880.1238095238095" type="curve" smooth="yes"/>
      <point x="420" y="880"/>
      <point x="368" y="783"/>
      <point x="367.9666666666667" y="598.1619047619048" type="curve" smooth="yes"/>
    </contour>
  </outline>
</glyph>
<glyph name="t" format="2">
  <advance width="604"/>
  <unicode hex="0074"/>
  <outline>
    <contour>
      <point x="0.0" y="867.6238095238095" type="line"/>
      <point x="0.0" y="1079.857142857143" type="line"/>
      <point x="562.6" y="1079.857142857143" type="line"/>
      <point x="562.6" y="867.6238095238095" type="line"/>
    </contour>
    <contour>
      <point x="120.73333333333333" y="314.0" type="curve" smooth="yes"/>
      <point x="120.73333333333333" y="969.4904761904762" type="line"/>
      <point x="121.73333333333333" y="998.4904761904762" type="line"/>
      <point x="121.73333333333333" y="1312.0714285714287" type="line"/>
      <point x="408.2" y="1312.0714285714287" type="line"/>
      <point x="408.2" y="312.5333333333333" type="line" smooth="yes"/>
      <point x="408" y="208"/>
      <point x="437" y="189"/>
      <point x="484.6666666666667" y="188.66666666666666" type="curve" smooth="yes"/>
      <point x="508" y="189"/>
      <point x="531" y="195"/>
      <point x="552.7666666666667" y="203.33333333333334" type="curve"/>
      <point x="552.7666666666667" y="1.0" type="line"/>
      <point x="528" y="-15"/>
      <point x="477" y="-30"/>
      <point x="420.8666666666667" y="-29.5" type="curve" smooth="yes"/>
      <point x="240" y="-30"/>
      <point x="121" y="76"/>
    </contour>
  </outline>
</glyph>
<glyph name="asciitilde" format="2">
  <advance width="1318"/>
  <unicode hex="007E"/>
  <outline>
    <contour>
      <point x="362.8846153846" y="474.1923076923" type="curve"/>
      <point x="362.8846153846" y="771.14615384615" type="line"/>
      <point x="395" y="834"/>
      <point x="434" y="864"/>
      <point x="494.7076923077" y="863.9641025640833" type="curve" smooth="yes"/>
      <point x="524" y="864"/>
      <point x="603" y="846"/>
      <point x="675.7487179487333" y="808.3512820512666" type="curve" smooth="yes"/>
      <point x="736" y="777"/>
      <point x="806" y="763"/>
      <point x="827.0" y="763.2076923077" type="curve" smooth="yes"/>
      <point x="892" y="763"/>
      <point x="931" y="803"/>
      <point x="963.7128205128167" y="875.8769230769001" type="curve"/>
      <point x="963.7128205128167" y="574.46923076925" type="line"/>
      <point x="934" y="517"/>
      <point x="893" y="486"/>
      <point x="830.2564102564334" y="485.7948717948833" type="curve" smooth="yes"/>
      <point x="802" y="486"/>
      <point x="724" y="503"/>
      <point x="657.2102564102333" y="537.2025641025833" type="curve" smooth="yes"/>
      <point x="591" y="571"/>
      <point x="519" y="585"/>
      <point x="497.5589743589667" y="584.74615384615" type="curve" smooth="yes"/>
      <point x="433" y="585"/>
      <point x="396" y="548"/>
    </contour>
  </outline>
</glyph>
<glyph name="periodcentered" format="2">
  <advance width="664"/>
  <unicode hex="00B7"/>
  <outline>
    <contour>
      <point x="142.0" y="748.5" type="curve" smooth="yes"/>
      <point x="142" y="845"/>
      <point x="207" y="922"/>
      <point x="326.5" y="922.0" type="curve" smooth="yes"/>
      <point x="447" y="922"/>
      <point x="512" y="845"/>
      <point x="511.5" y="748.5" type="curve" smooth="yes"/>
      <point x="512" y="652"/>
      <point x="447" y="575"/>
      <point x="326.5" y="575.0" type="curve" smooth="yes"/>
      <point x="207" y="575"/>
      <point x="142" y="653"/>
    </contour>
  </outline>
</glyph>
<glyph name="cedilla" format="2">
  <advance width="1024"/>
  <unicode hex="00B8"/>
  <outline>
    <contour>
      <point x="427.0" y="42.0" type="line"/>
      <point x="585.5" y="42.0" type="line"/>
      <point x="555.5" y="-58.5" type="line"/>
      <point x="657" y="-73"/>
      <point x="762" y="-119"/>
      <point x="762.0" y="-242.0" type="curve" smooth="yes"/>
      <point x="762" y="-374"/>
      <point x="641" y="-465"/>
      <point x="328.5" y="-463.5" type="curve"/>
      <point x="320.0" y="-339.5" type="line"/>
      <point x="494" y="-340"/>
      <point x="536" y="-312"/>
      <point x="536.0" y="-244.0" type="curve" smooth="yes"/>
      <point x="536" y="-182"/>
      <point x="498" y="-165"/>
      <point x="382.0" y="-155.5" type="curve"/>
    </contour>
  </outline>
</glyph>
<glyph name="breve" format="2">
  <advance width="1022"/>
  <unicode hex="02D8"/>
  <outline>
    <contour>
      <point x="743.0" y="1560.0" type="curve"/>
      <point x="885.5" y="1483.0" type="line"/>
      <point x="841.95" y="1353.69"/>
      <point x="703.11" y="1198.0"/>
      <point x="513.5" y="1198.0" type="curve" smooth="yes"/>
      <point x="341.98" y="1198.0"/>
      <point x="194.94" y="1332.08"/>
      <point x="140.0" y="1483.5" type="curve"/>
      <point x="284.5" y="1560.0" type="line"/>
      <point x="330.06" y="1486.3"/>
      <point x="411.49" y="1410.5"/>
      <point x="514.0" y="1410.5" type="curve" smooth="yes"/>
      <point x="622.54" y="1410.5"/>
      <point x="696.1" y="1481.61"/>
    </contour>
  </outline>
</glyph>
<glyph name="ring" format="2">
  <advance width="1024"/>
  <unicode hex="02DA"/>
  <outline>
    <contour>
      <point x="258.0" y="1389.0" type="curve"/>
      <point x="258.0" y="1525.01"/>
      <point x="367.28" y="1634.0"/>
      <point x="512.0" y="1634.0" type="curve" smooth="yes"/>
      <point x="653.37" y="1634.0"/>
      <point x="766.0" y="1525.01"/>
      <point x="766.0" y="1389.0" type="curve" smooth="yes"/>
      <point x="766.0" y="1252.32"/>
      <point x="653.37" y="1148.5"/>
      <point x="512.0" y="1148.5" type="curve" smooth="yes"/>
      <point x="367.28" y="1148.5"/>
      <point x="258.0" y="1252.32"/>
    </contour>
    <contour>
      <point x="403.5" y="1389.0" type="curve"/>
      <point x="403.5" y="1334.06"/>
      <point x="448.35" y="1281.5"/>
      <point x="512.0" y="1281.5" type="curve" smooth="yes"/>
      <point x="575.65" y="1281.5"/>
      <point x="621.0" y="1331.38"/>
      <point x="621.0" y="1389.0" type="curve" smooth="yes"/>
      <point x="621.0" y="1447.29"/>
      <point x="575.65" y="1500.0"/>
      <point x="512.0" y="1500.0" type="curve" smooth="yes"/>
      <point x="448.35" y="1500.0"/>
      <point x="403.5" y="1447.29"/>
    </contour>
  </outline>
</glyph>
<glyph name="Omega" format="2">
  <advance width="1139"/>
  <unicode hex="03A9"/>
  <anchor x="24.266666666666666" y="1456.0" name="GRK_topleft"/>
  <outline>
    <contour>
      <point x="2.433333333333337" y="0.0" type="line"/>
      <point x="2.433333333333337" y="227.6" type="line"/>
      <point x="299.0" y="227.6" type="line"/>
      <point x="299.0" y="348.93333333333334" type="line"/>
      <point x="118.54666666666662" y="425.31333333333333"/>
      <point x="2.433333333333337" y="580.6066666666666"/>
      <point x="2.433333333333337" y="860.6666666666666" type="curve"/>
      <point x="2.433333333333337" y="901.6666666666666" type="line"/>
      <point x="2.433333333333337" y="1276.8666666666668"/>
      <point x="222.62666666666667" y="1486.0"/>
      <point x="570.1333333333333" y="1486.0" type="curve"/>
      <point x="918.3993333333333" y="1486.0"/>
      <point x="1136.9" y="1276.1966666666667"/>
      <point x="1136.9" y="901.6666666666666" type="curve"/>
      <point x="1136.9" y="860.6666666666666" type="line"/>
      <point x="1136.9" y="580.6066666666666"/>
      <point x="1019.72" y="425.31333333333333"/>
      <point x="839.2666666666667" y="348.93333333333334" type="curve"/>
      <point x="839.2666666666667" y="227.6" type="line"/>
      <point x="1136.9" y="227.6" type="line"/>
      <point x="1136.9" y="0.0" type="line"/>
      <point x="625.8" y="0.0" type="line"/>
      <point x="625.8" y="479.5" type="line"/>
      <point x="767.7953333333334" y="515.68"/>
      <point x="833.9333333333334" y="658.7066666666666"/>
      <point x="833.9333333333334" y="851.6666666666666" type="curve"/>
      <point x="833.9333333333334" y="894.6666666666666" type="line"/>
      <point x="833.9333333333334" y="1136.5366666666669"/>
      <point x="750.212" y="1254.8333333333333"/>
      <point x="569.1333333333333" y="1254.8333333333333" type="curve"/>
      <point x="388.05466666666666" y="1254.8333333333333"/>
      <point x="305.3333333333333" y="1136.5366666666669"/>
      <point x="305.3333333333333" y="894.6666666666666" type="curve"/>
      <point x="305.3333333333333" y="851.6666666666666" type="line"/>
      <point x="305.3333333333333" y="658.7066666666666"/>
      <point x="369.042" y="515.68"/>
      <point x="512.4666666666667" y="479.5" type="curve"/>
      <point x="512.4666666666667" y="0.0" type="line"/>
    </contour>
  </outline>
</glyph>
<glyph name="epsilon" format="2">
  <advance width="951"/>
  <unicode hex="03B5"/>
  <anchor x="476.0" y="1080.357142857143" name="GRK_top"/>
  <outline>
    <contour>
      <point x="467.8333333333333" y="-30.0" type="curve"/>
      <point x="190.5426666666666" y="-30.0"/>
      <point x="38.733333333333334" y="106.37714285714281"/>
      <point x="38.733333333333334" y="287.4047619047619" type="curve"/>
      <point x="38.733333333333334" y="444.8228571428572"/>
      <point x="110.14933333333332" y="537.2028571428572"/>
      <point x="281.1333333333333" y="553.8571428571429" type="curve"/>
      <point x="281.2" y="531.2142857142857" type="line"/>
      <point x="147.2893333333333" y="554.5685714285714"/>
      <point x="65.83333333333334" y="639.3071428571428"/>
      <point x="65.83333333333334" y="773.7857142857143" type="curve"/>
      <point x="65.83333333333334" y="971.4357142857143"/>
      <point x="212.25199999999995" y="1110.5714285714287"/>
      <point x="492.1333333333333" y="1110.5714285714287" type="curve" smooth="yes"/>
      <point x="781.7966666666666" y="1110.5714285714287"/>
      <point x="923.2293333333333" y="950.374"/>
      <point x="921.8" y="710.5714285714286" type="curve"/>
      <point x="641.1190476190476" y="710.5714285714286" type="line"/>
      <point x="641.1190476190476" y="830.0228571428571"/>
      <point x="603.2166666666666" y="898.0571428571428"/>
      <point x="497.1333333333333" y="898.0571428571428" type="curve" smooth="yes"/>
      <point x="411.86466666666666" y="898.0571428571428"/>
      <point x="374.64761904761906" y="834.3988571428571"/>
      <point x="374.64761904761906" y="765.7142857142857" type="curve"/>
      <point x="374.64761904761906" y="686.488380952381"/>
      <point x="399.45533333333333" y="644.8714285714286"/>
      <point x="513.4" y="644.8714285714286" type="curve" smooth="yes"/>
      <point x="591.7333333333333" y="644.8714285714286" type="line"/>
      <point x="591.7333333333333" y="452.33809523809526" type="line"/>
      <point x="498.4" y="452.33809523809526" type="line" smooth="yes"/>
      <point x="369.4026666666666" y="452.33809523809526"/>
      <point x="347.4809523809524" y="407.682380952381"/>
      <point x="347.4809523809524" y="326.35714285714283" type="curve" smooth="yes"/>
      <point x="347.4809523809524" y="248.15857142857143"/>
      <point x="369.82933333333335" y="187.94761904761904"/>
      <point x="477.8333333333333" y="187.94761904761904" type="curve"/>
      <point x="599.1033333333334" y="187.94761904761904"/>
      <point x="635.6433333333333" y="262.88980952380956"/>
      <point x="640.3333333333334" y="376.2857142857143" type="curve"/>
      <point x="921.8" y="376.2857142857143" type="line"/>
      <point x="921.8" y="124.80600000000001"/>
      <point x="756.3353333333333" y="-30.0"/>
    </contour>
  </outline>
</glyph>
<glyph name="zeta" format="2">
  <advance width="761"/>
  <unicode hex="03B6"/>
  <outline>
    <contour>
      <point x="494.9666666666667" y="-348.0" type="line"/>
      <point x="515.022" y="-268.13599999999997"/>
      <point x="527.3666666666667" y="-198.94666666666666"/>
      <point x="527.3666666666667" y="-142.66666666666666" type="curve" smooth="yes"/>
      <point x="527.3666666666667" y="-78.48066666666666"/>
      <point x="513.6366666666667" y="-51.116"/>
      <point x="381.2" y="-9.933333333333334" type="curve" smooth="yes"/>
      <point x="330.56666666666666" y="7.566666666666666" type="line" smooth="yes"/>
      <point x="140.242" y="66.39266666666667"/>
      <point x="41.66666666666667" y="164.0"/>
      <point x="41.66666666666667" y="365.0" type="curve" smooth="yes"/>
      <point x="41.66666666666667" y="552.6"/>
      <point x="140.44199999999998" y="742.6800000000001"/>
      <point x="292.8" y="1008.0" type="curve" smooth="yes"/>
      <point x="482.5" y="1358.5" type="line"/>
      <point x="492.5333333333333" y="1303.7666666666667" type="line"/>
      <point x="44.43333333333334" y="1303.7666666666667" type="line"/>
      <point x="44.43333333333334" y="1536.0" type="line"/>
      <point x="777.5" y="1536.0" type="line"/>
      <point x="777.5" y="1354.0" type="line"/>
      <point x="548.4666666666667" y="924.0" type="line" smooth="yes"/>
      <point x="383.9593333333333" y="637.24"/>
      <point x="340.2" y="530.21"/>
      <point x="340.2" y="421.0" type="curve" smooth="yes"/>
      <point x="340.2" y="313.3086666666667"/>
      <point x="405.06199999999995" y="275.1053333333333"/>
      <point x="490.8666666666667" y="247.23333333333335" type="curve" smooth="yes"/>
      <point x="551.8" y="231.0" type="line" smooth="yes"/>
      <point x="745.6980000000001" y="172.66533333333334"/>
      <point x="775.1" y="83.734"/>
      <point x="775.1" y="-37.0" type="curve"/>
      <point x="775.1893333333333" y="-112.04"/>
      <point x="746.5073333333333" y="-249.51"/>
      <point x="711.5333333333333" y="-348.0" type="curve"/>
    </contour>
  </outline>
</glyph>
<glyph name="eta" format="2">
  <advance width="1076"/>
  <unicode hex="03B7"/>
  <anchor x="451.3333333333333" y="1079.857142857143" name="GRK_top"/>
  <outline>
    <contour>
      <point x="667.0666666666666" y="-633.7666666666667" type="line"/>
      <point x="667.0666666666666" y="725.2904761904762" type="line" smooth="yes"/>
      <point x="667.0666666666666" y="834.411142857143"/>
      <point x="637.066" y="877.6904761904761"/>
      <point x="559.0333333333333" y="877.6904761904761" type="curve" smooth="yes"/>
      <point x="490.4253333333333" y="877.6904761904761"/>
      <point x="433.7873333333333" y="822.3518095238095"/>
      <point x="418.4666666666667" y="765.3571428571429" type="curve"/>
      <point x="418.4666666666667" y="0.0" type="line"/>
      <point x="130.0" y="0.0" type="line"/>
      <point x="130.0" y="1079.857142857143" type="line"/>
      <point x="406.6666666666667" y="1079.857142857143" type="line"/>
      <point x="412.1" y="977.3571428571429" type="line"/>
      <point x="415.4666666666667" y="977.3571428571429" type="line"/>
      <point x="454.014" y="1050.5211428571429"/>
      <point x="548.348" y="1101.357142857143"/>
      <point x="652.6" y="1101.357142857143" type="curve" smooth="yes"/>
      <point x="831.7579999999999" y="1101.357142857143"/>
      <point x="955.5333333333333" y="1001.7104761904761"/>
      <point x="955.5333333333333" y="705.1238095238095" type="curve" smooth="yes"/>
      <point x="955.5333333333333" y="-633.7666666666667" type="line"/>
    </contour>
  </outline>
</glyph>
<glyph name="kappa" format="2">
  <advance width="983"/>
  <unicode hex="03BA"/>
  <outline>
    <contour>
      <point x="130.0" y="0.0" type="line"/>
      <point x="130.0" y="1079.857142857143" type="line"/>
      <point x="418.4666666666667" y="1079.857142857143" type="line"/>
      <point x="418.4666666666667" y="0.0" type="line"/>
    </contour>
    <contour>
      <point x="266.5190476190476" y="439.35714285714283" type="line"/>
      <point x="266.5190476190476" y="664.3571428571429" type="line"/>
      <point x="476.0857142857143" y="664.3571428571429" type="line"/>
      <point x="679.9190476190477" y="1079.857142857143" type="line"/>
      <point x="965.9190476190477" y="1079.857142857143" type="line"/>
      <point x="624.0857142857143" y="439.35714285714283" type="line"/>
    </contour>
    <contour>
      <point x="705.5619047619048" y="0.0" type="line"/>
      <point x="449.5857142857143" y="490.85714285714283" type="line"/>
      <point x="666.952380952381" y="616.8571428571429" type="line"/>
      <point x="1003.6952380952381" y="0.0" type="line"/>
    </contour>
  </outline>
</glyph>
<glyph name="pi" format="2">
  <advance width="1123"/>
  <unicode hex="03C0"/>
  <outline>
    <contour>
      <point x="32.0" y="847.6238095238095" type="line"/>
      <point x="32.0" y="1079.857142857143" type="line"/>
      <point x="1111.7" y="1079.857142857143" type="line"/>
      <point x="1111.7" y="847.6238095238095" type="line"/>
    </contour>
    <contour>
      <point x="162.8" y="0.0" type="line"/>
      <point x="163.8" y="959.9904761904762" type="line"/>
      <point x="450.26666666666665" y="959.9904761904762" type="line"/>
      <point x="450.26666666666665" y="0.0" type="line"/>
    </contour>
    <contour>
      <point x="970.2333333333333" y="-18.833333333333336" type="curve" smooth="yes"/>
      <point x="773.432" y="-18.833333333333336"/>
      <point x="700.4" y="49.1573333333333"/>
      <point x="700.4" y="267.6666666666667" type="curve"/>
      <point x="701.4" y="959.9904761904762" type="line"/>
      <point x="987.8666666666667" y="959.9904761904762" type="line"/>
      <point x="987.8666666666667" y="286.8333333333333" type="line" smooth="yes"/>
      <point x="987.8666666666667" y="199.46533333333332"/>
      <point x="1026.0339999999999" y="195.06666666666666"/>
      <point x="1052.7" y="195.06666666666666" type="curve" smooth="yes"/>
      <point x="1084.1453333333334" y="195.06666666666666"/>
      <point x="1107.1386666666665" y="204.09333333333333"/>
      <point x="1121.7" y="212.13333333333333" type="curve"/>
      <point x="1121.7" y="6.6" type="line"/>
      <point x="1097.6693333333333" y="-7.470000000000001"/>
      <point x="1011.3713333333334" y="-18.833333333333336"/>
    </contour>
  </outline>
</glyph>
<glyph name="sigma" format="2">
  <advance width="1133"/>
  <unicode hex="03C3"/>
  <outline>
    <contour>
      <point x="539.2" y="-30.0" type="curve" smooth="yes"/>
      <point x="254.71799999999996" y="-30.0"/>
      <point x="73.0" y="174.61095238095243"/>
      <point x="73.0" y="504.85714285714283" type="curve" smooth="yes"/>
      <point x="73.0" y="535.0" type="line" smooth="yes"/>
      <point x="73.0" y="869.4576190476191"/>
      <point x="267.77799999999996" y="1079.857142857143"/>
      <point x="535.7333333333333" y="1079.857142857143" type="curve" smooth="yes"/>
      <point x="1091.9333333333334" y="1079.857142857143" type="line"/>
      <point x="1091.9333333333334" y="857.6238095238095" type="line"/>
      <point x="825.2" y="857.6238095238095" type="line"/>
      <point x="825.2" y="939.8571428571429" type="line"/>
      <point x="929.9879999999999" y="876.8771428571429"/>
      <point x="1004.3333333333334" y="762.2376190476191"/>
      <point x="1004.3333333333334" y="539.0" type="curve" smooth="yes"/>
      <point x="1004.3333333333334" y="508.85714285714283" type="line" smooth="yes"/>
      <point x="1004.3333333333334" y="178.61095238095243"/>
      <point x="823.682" y="-30.0"/>
    </contour>
    <contour>
      <point x="539.7" y="191.23333333333335" type="curve" smooth="yes"/>
      <point x="647.3913333333333" y="191.23333333333335"/>
      <point x="709.9333333333334" y="270.7982857142857"/>
      <point x="709.9333333333334" y="500.85714285714283" type="curve" smooth="yes"/>
      <point x="709.9333333333334" y="553.0" type="line" smooth="yes"/>
      <point x="709.9333333333334" y="781.2402857142857"/>
      <point x="646.0573333333333" y="860.4904761904762"/>
      <point x="534.0333333333333" y="860.4904761904762" type="curve" smooth="yes"/>
      <point x="423.20257142857145" y="860.4904761904762"/>
      <point x="367.9" y="772.6742857142858"/>
      <point x="367.9" y="551.0" type="curve" smooth="yes"/>
      <point x="367.9" y="498.85714285714283" type="line" smooth="yes"/>
      <point x="367.9" y="268.7982857142857"/>
      <point x="430.5793333333333" y="191.23333333333335"/>
    </contour>
  </outline>
</glyph>
<glyph name="tau" format="2">
  <advance width="761"/>
  <unicode hex="03C4"/>
  <outline>
    <contour>
      <point x="32.0" y="847.6238095238095" type="line"/>
      <point x="32.0" y="1079.857142857143" type="line"/>
      <point x="752.2" y="1079.857142857143" type="line"/>
      <point x="752.2" y="847.6238095238095" type="line"/>
    </contour>
    <contour>
      <point x="518.6" y="-29.5" type="curve" smooth="yes"/>
      <point x="337.52133333333336" y="-29.5"/>
      <point x="243.46666666666667" y="61.14999999999998"/>
      <point x="243.46666666666667" y="299.0" type="curve" smooth="yes"/>
      <point x="244.46666666666667" y="959.9904761904762" type="line"/>
      <point x="530.9333333333334" y="959.9904761904762" type="line"/>
      <point x="530.9333333333334" y="312.5333333333333" type="line" smooth="yes"/>
      <point x="530.9333333333334" y="208.14733333333334"/>
      <point x="559.4726666666667" y="188.66666666666666"/>
      <point x="607.4" y="188.66666666666666" type="curve" smooth="yes"/>
      <point x="631.0733333333334" y="188.66666666666666"/>
      <point x="653.8366666666667" y="194.802"/>
      <point x="675.5" y="203.33333333333334" type="curve"/>
      <point x="675.5" y="1.0" type="line"/>
      <point x="650.3973333333333" y="-15.080000000000002"/>
      <point x="574.9246666666667" y="-29.5"/>
    </contour>
  </outline>
</glyph>
<glyph name="upsilon" format="2">
  <advance width="1056"/>
  <unicode hex="03C5"/>
  <anchor x="528.3" y="1079.857142857143" name="GRK_top"/>
  <outline>
    <contour>
      <point x="527.2333333333333" y="-20.0" type="curve" smooth="yes"/>
      <point x="233.54999999999995" y="-20.0"/>
      <point x="120.0" y="111.3166666666666"/>
      <point x="120.0" y="382.6666666666667" type="curve" smooth="yes"/>
      <point x="120.0" y="1079.857142857143" type="line"/>
      <point x="407.9666666666667" y="1079.857142857143" type="line"/>
      <point x="407.9666666666667" y="407.4666666666667" type="line" smooth="yes"/>
      <point x="407.9666666666667" y="261.89799999999997"/>
      <point x="443.48333333333335" y="202.66666666666669"/>
      <point x="527.2333333333333" y="202.66666666666669" type="curve" smooth="yes"/>
      <point x="612.4126666666666" y="202.66666666666669"/>
      <point x="647.5666666666666" y="261.89799999999997"/>
      <point x="647.5666666666666" y="407.4666666666667" type="curve" smooth="yes"/>
      <point x="647.5666666666666" y="1079.857142857143" type="line"/>
      <point x="935.5333333333333" y="1079.857142857143" type="line"/>
      <point x="935.5333333333333" y="382.6666666666667" type="line" smooth="yes"/>
      <point x="935.5333333333333" y="111.3166666666666"/>
      <point x="822.346" y="-20.0"/>
    </contour>
  </outline>
</glyph>
<glyph name="kaisymbol" format="2">
  <advance width="1161"/>
  <unicode hex="03D7"/>
  <outline>
    <contour>
      <point x="448.5761904761905" y="-633.5" type="line"/>
      <point x="275.4095238095238" y="-460.3333333333333" type="line"/>
      <point x="693.4761904761905" y="21.43809523809524" type="line"/>
      <point x="478.6714285714286" y="439.35714285714283" type="line"/>
      <point x="418.4666666666667" y="439.35714285714283" type="line"/>
      <point x="418.4666666666667" y="0.0" type="line"/>
      <point x="130.0" y="0.0" type="line"/>
      <point x="130.0" y="1079.857142857143" type="line"/>
      <point x="418.4666666666667" y="1079.857142857143" type="line"/>
      <point x="418.4666666666667" y="664.3571428571429" type="line"/>
      <point x="475.87142857142857" y="664.3571428571429" type="line"/>
      <point x="679.7047619047619" y="1079.857142857143" type="line"/>
      <point x="965.7047619047619" y="1079.857142857143" type="line"/>
      <point x="693.0238095238095" y="563.2095238095238" type="line"/>
      <point x="1004.2" y="-11.652380952380952" type="line"/>
    </contour>
  </outline>
</glyph>
<glyph name="ve" format="2">
  <advance width="1057"/>
  <unicode hex="0432"/>
  <outline>
    <contour>
      <point x="130.0" y="0.0" type="line"/>
      <point x="130.0" y="1055.0" type="line"/>
      <point x="559.8" y="1055.0" type="line" smooth="yes"/>
      <point x="826.1026666666667" y="1055.0"/>
      <point x="951.2666666666667" y="964.441846153841"/>
      <point x="951.2666666666667" y="787.5" type="curve" smooth="yes"/>
      <point x="951.2666666666667" y="653.759354838714"/>
      <point x="875.8573009718374" y="572.3749472447819"/>
      <point x="748.8" y="547.0" type="curve"/>
      <point x="748.8" y="544.0" type="line"/>
      <point x="903.2126666666667" y="521.3093333333334"/>
      <point x="988.2666666666667" y="436.69"/>
      <point x="988.2666666666667" y="298.0" type="curve" smooth="yes"/>
      <point x="988.2666666666667" y="109.72999999999999"/>
      <point x="854.5426666666667" y="0.0"/>
      <point x="600.3" y="0.0" type="curve" smooth="yes"/>
    </contour>
    <contour>
      <point x="413.4666666666667" y="170.0" type="line"/>
      <point x="540.3" y="170.0" type="line" smooth="yes"/>
      <point x="653.53" y="170.0"/>
      <point x="698.8" y="227.986942148793"/>
      <point x="698.8" y="314.5" type="curve" smooth="yes"/>
      <point x="698.8" y="399.519473684207"/>
      <point x="654.1999999999999" y="456.0"/>
      <point x="540.3" y="456.0" type="curve" smooth="yes"/>
      <point x="413.4666666666667" y="456.0" type="line"/>
    </contour>
    <contour>
      <point x="413.4666666666667" y="620.0" type="line"/>
      <point x="510.3" y="620.0" type="line" smooth="yes"/>
      <point x="617.258055555563" y="620.0"/>
      <point x="660.8" y="669.725"/>
      <point x="660.8" y="758.5" type="curve" smooth="yes"/>
      <point x="660.8" y="839.8663461538409"/>
      <point x="617.258055555563" y="885.0"/>
      <point x="510.3" y="885.0" type="curve" smooth="yes"/>
      <point x="413.4666666666667" y="885.0" type="line"/>
    </contour>
  </outline>
</glyph>
<glyph name="hard" format="2">
  <advance width="1121"/>
  <unicode hex="044A"/>
  <outline>
    <contour>
      <point x="30.0" y="832.5" type="line"/>
      <point x="30.0" y="1055.0" type="line"/>
      <point x="510.4666666666667" y="1055.0" type="line"/>
      <point x="510.4666666666667" y="704.3333333333334" type="line"/>
      <point x="657.1333333333333" y="704.3333333333334" type="line" smooth="yes"/>
      <point x="923.436" y="704.3333333333334"/>
      <point x="1062.6" y="571.928"/>
      <point x="1062.6" y="349.6666666666667" type="curve" smooth="yes"/>
      <point x="1062.6" y="122.71533333333332"/>
      <point x="923.436" y="0.0"/>
      <point x="657.1333333333333" y="0.0" type="curve" smooth="yes"/>
      <point x="222.0" y="0.0" type="line"/>
      <point x="222.0" y="832.5" type="line"/>
    </contour>
    <contour>
      <point x="604.1333333333333" y="500.3333333333333" type="curve" smooth="yes"/>
      <point x="510.4666666666667" y="500.3333333333333" type="line"/>
      <point x="510.4666666666667" y="204.0" type="line"/>
      <point x="604.1333333333333" y="204.0" type="line" smooth="yes"/>
      <point x="725.4033333333333" y="204.0"/>
      <point x="773.1333333333333" y="256.5253333333333"/>
      <point x="773.1333333333333" y="354.1666666666667" type="curve" smooth="yes"/>
      <point x="773.1333333333333" y="445.10800000000006"/>
      <point x="726.0733333333334" y="500.3333333333333"/>
    </contour>
  </outline>
</glyph>
<glyph name="ecyr" format="2">
  <advance width="956"/>
  <unicode hex="044D"/>
  <guideline x="889.0" y="493.0" angle="90.0" identifier="9ss4WcbEUf"/>
  <outline>
    <contour>
      <point x="883.2333333333333" y="512.0" type="line" smooth="yes"/>
      <point x="883.2333333333333" y="164.26999999999998"/>
      <point x="709.8987827731337" y="-30.0"/>
      <point x="422.3" y="-30.0" type="curve" smooth="yes"/>
      <point x="151.83394198923725" y="-30.0"/>
      <point x="11.733333333333334" y="127.59799999999998"/>
      <point x="11.733333333333334" y="340.1666666666667" type="curve" smooth="yes"/>
      <point x="11.733333333333334" y="352.6666666666667" type="line"/>
      <point x="287.2" y="352.6666666666667" type="line"/>
      <point x="287.2" y="345.6666666666667" type="line" smooth="yes"/>
      <point x="287.2" y="252.49199999999996"/>
      <point x="316.0910430107748" y="181.8"/>
      <point x="423.8666666666667" y="181.8" type="curve" smooth="yes"/>
      <point x="539.8792792792526" y="181.8"/>
      <point x="592.7666666666667" y="276.25133333333326"/>
      <point x="592.7666666666667" y="469.1666666666667" type="curve" smooth="yes"/>
      <point x="592.7666666666667" y="580.0333333333333" type="line" smooth="yes"/>
      <point x="592.7666666666667" y="787.4206666666666"/>
      <point x="533.7160182648631" y="874.2666666666667"/>
      <point x="430.7" y="874.2666666666667" type="curve" smooth="yes"/>
      <point x="328.0163763441081" y="874.2666666666667"/>
      <point x="292.9666666666667" y="812.7453333333333"/>
      <point x="292.9666666666667" y="709.8333333333334" type="curve" smooth="yes"/>
      <point x="292.9666666666667" y="702.3333333333334" type="line"/>
      <point x="17.0" y="702.3333333333334" type="line"/>
      <point x="18.5" y="720.3333333333334" type="line" smooth="yes"/>
      <point x="29.784936587722996" y="933.603011406605"/>
      <point x="165.92396508557363" y="1085.5"/>
      <point x="428.56666666666666" y="1085.5" type="curve" smooth="yes"/>
      <point x="706.9059414177327" y="1085.5"/>
      <point x="883.2333333333333" y="891.73"/>
      <point x="883.2333333333333" y="544.0" type="curve" smooth="yes"/>
    </contour>
    <contour>
      <point x="688.6" y="630.0" type="line"/>
      <point x="688.6" y="445.0" type="line"/>
      <point x="330.73333333333335" y="445.0" type="line"/>
      <point x="330.73333333333335" y="630.0" type="line"/>
    </contour>
  </outline>
</glyph>
<glyph name="yi" format="2">
  <advance width="557"/>
  <unicode hex="0457"/>
  <outline>
    <contour>
      <point x="134.5" y="0.0" type="line"/>
      <point x="134.5" y="1055.0" type="line"/>
      <point x="422.9666666666667" y="1055.0" type="line"/>
      <point x="422.9666666666667" y="0.0" type="line"/>
    </contour>
    <contour>
      <point x="23.0" y="1348.1333333333334" type="curve" smooth="yes"/>
      <point x="23.0" y="1435.0401391585513"/>
      <point x="65.67666666666666" y="1501.6666666666667"/>
      <point x="144.06666666666666" y="1501.6666666666667" type="curve" smooth="yes"/>
      <point x="222.36733333333333" y="1501.6666666666667"/>
      <point x="265.06666666666666" y="1435.0401391585513"/>
      <point x="265.06666666666666" y="1348.1333333333334" type="curve" smooth="yes"/>
      <point x="265.06666666666666" y="1262.0535031446313"/>
      <point x="222.36733333333333" y="1196.6"/>
      <point x="144.06666666666666" y="1196.6" type="curve" smooth="yes"/>
      <point x="65.67666666666666" y="1196.6"/>
      <point x="23.0" y="1262.0535031446313"/>
    </contour>
    <contour>
      <point x="292.4" y="1348.1333333333334" type="curve" smooth="yes"/>
      <point x="292.4" y="1435.0401391585513"/>
      <point x="335.0766666666667" y="1501.6666666666667"/>
      <point x="413.4666666666667" y="1501.6666666666667" type="curve" smooth="yes"/>
      <point x="491.7673333333333" y="1501.6666666666667"/>
      <point x="534.4666666666667" y="1435.0401391585513"/>
      <point x="534.4666666666667" y="1348.1333333333334" type="curve" smooth="yes"/>
      <point x="534.4666666666667" y="1262.0535031446313"/>
      <point x="491.7673333333333" y="1196.6"/>
      <point x="413.4666666666667" y="1196.6" type="curve" smooth="yes"/>
      <point x="335.0766666666667" y="1196.6"/>
      <point x="292.4" y="1262.0535031446313"/>
    </contour>
  </outline>
</glyph>
<glyph name="Chedescender-cy" format="2">
  <advance width="1321"/>
  <unicode hex="04B6"/>
  <outline>
    <contour>
      <point x="437.0" y="1130.6666666666667" type="line" smooth="yes"/>
      <point x="437.0" y="834.7053333333332"/>
      <point x="537.6546666666667" y="774.7333333333333"/>
      <point x="709.8" y="774.7333333333333" type="curve" smooth="yes"/>
      <point x="834.3306666666667" y="774.7333333333333"/>
      <point x="914.0146666666667" y="790.384"/>
      <point x="1013.8" y="811.4666666666667" type="curve"/>
      <point x="1013.8" y="587.7333333333333" type="line"/>
      <point x="869.8393333333333" y="556.6006666666667"/>
      <point x="778.0160000000001" y="546.0"/>
      <point x="658.6666666666666" y="546.0" type="curve" smooth="yes"/>
      <point x="355.3353333333333" y="546.0"/>
      <point x="140.66666666666666" y="662.9333333333332"/>
      <point x="140.66666666666666" y="1060.4666666666667" type="curve" smooth="yes"/>
      <point x="140.66666666666666" y="1456.0" type="line"/>
      <point x="437.0" y="1456.0" type="line"/>
    </contour>
    <contour>
      <point x="1163.6" y="1456.0" type="line"/>
      <point x="1163.6" y="228.73333333333335" type="line"/>
      <point x="1322.2666666666667" y="228.73333333333335" type="line"/>
      <point x="1322.2666666666667" y="-290.0" type="line"/>
      <point x="1035.2666666666667" y="-290.0" type="line"/>
      <point x="1035.2666666666667" y="0.0" type="line"/>
      <point x="865.1333333333333" y="0.0" type="line"/>
      <point x="865.1333333333333" y="1456.0" type="line"/>
    </contour>
  </outline>
</glyph>
<glyph name="quoteright" format="2">
  <advance width="569"/>
  <unicode hex="2019"/>
  <outline>
    <contour>
      <point x="450.0" y="1458.0" type="line"/>
      <point x="450.0" y="1305.0" type="line" smooth="yes"/>
      <point x="450.0" y="1140.85"/>
      <point x="375.12" y="995.23"/>
      <point x="217.0" y="882.0" type="curve"/>
      <point x="45.5" y="1001.0" type="line"/>
      <point x="111.16000000000001" y="1088.1"/>
      <point x="146.5" y="1179.05"/>
      <point x="146.5" y="1303.0" type="curve" smooth="yes"/>
      <point x="146.5" y="1458.0" type="line"/>
    </contour>
  </outline>
</glyph>
<glyph name="dagger" format="2">
  <advance width="1008"/>
  <unicode hex="2020"/>
  <outline>
    <contour>
      <point x="361.3333333333333" y="-224.0" type="curve"/>
      <point x="357.3333333333333" y="33.0" type="line"/>
      <point x="383.3333333333333" y="723.0" type="line"/>
      <point x="383.3333333333333" y="827.0" type="line"/>
      <point x="100.33333333333334" y="827.0" type="line"/>
      <point x="100.33333333333334" y="1050.0" type="line"/>
      <point x="379.3333333333333" y="1050.0" type="line"/>
      <point x="361.3333333333333" y="1508.0" type="line"/>
      <point x="641.6666666666666" y="1508.0" type="line"/>
      <point x="623.6666666666666" y="1050.0" type="line"/>
      <point x="902.6666666666666" y="1050.0" type="line"/>
      <point x="902.6666666666666" y="827.0" type="line"/>
      <point x="619.6666666666666" y="827.0" type="line"/>
      <point x="619.6666666666666" y="723.0" type="line"/>
      <point x="645.6666666666666" y="33.0" type="line"/>
      <point x="641.6666666666666" y="-224.0" type="line"/>
      <point x="495.6066666666666" y="-506.07"/>
      <point x="507.3933333333333" y="-506.07"/>
    </contour>
  </outline>
</glyph>
<glyph name="hryvnia" format="2">
  <advance width="1236"/>
  <unicode hex="20B4"/>
  <outline>
    <contour>
      <point x="1183.7666666666667" y="666.0666666666667" type="line"/>
      <point x="46.83333333333333" y="666.0666666666667" type="line"/>
      <point x="46.83333333333333" y="484.6666666666667" type="line"/>
      <point x="1183.7666666666667" y="484.6666666666667" type="line"/>
    </contour>
    <contour>
      <point x="1180.5666666666666" y="972.8" type="line"/>
      <point x="46.83333333333333" y="972.8" type="line"/>
      <point x="46.83333333333333" y="790.3333333333334" type="line"/>
      <point x="1183.7666666666667" y="790.3333333333334" type="line"/>
    </contour>
    <contour>
      <point x="1124.2666666666667" y="1140.6" type="curve" smooth="yes"/>
      <point x="1124.2666666666667" y="1367.864"/>
      <point x="935.7180000000001" y="1485.5"/>
      <point x="623.9" y="1485.5" type="curve" smooth="yes"/>
      <point x="322.62333333333333" y="1485.5"/>
      <point x="134.63333333333333" y="1346.242"/>
      <point x="134.63333333333333" y="1076.5" type="curve" smooth="yes"/>
      <point x="134.63333333333333" y="1054.3333333333333" type="line"/>
      <point x="433.1" y="1054.3333333333333" type="line"/>
      <point x="433.1" y="1074.5" type="line" smooth="yes"/>
      <point x="433.1" y="1193.2686666666668"/>
      <point x="499.1673333333333" y="1262.3333333333333"/>
      <point x="624.1" y="1262.3333333333333" type="curve" smooth="yes"/>
      <point x="767.7479999999999" y="1262.3333333333333"/>
      <point x="819.3" y="1197.9733333333331"/>
      <point x="819.3" y="1120.7" type="curve" smooth="yes"/>
      <point x="819.3" y="1060.6233333333332"/>
      <point x="805.088" y="1013.2360000000001"/>
      <point x="751.6666666666666" y="961.3333333333334" type="curve"/>
      <point x="1092.3666666666668" y="961.3333333333334" type="line"/>
      <point x="1112.556" y="1011.5386666666666"/>
      <point x="1124.2666666666667" y="1070.116"/>
    </contour>
    <contour>
      <point x="1139.8666666666668" y="405.1666666666667" type="line"/>
      <point x="835.9" y="405.1666666666667" type="line"/>
      <point x="835.9" y="386.0" type="line" smooth="yes"/>
      <point x="835.9" y="260.442"/>
      <point x="764.3053333333334" y="197.66666666666666"/>
      <point x="624.7666666666667" y="197.66666666666666" type="curve" smooth="yes"/>
      <point x="481.878" y="197.66666666666666"/>
      <point x="415.0" y="272.4946666666667"/>
      <point x="415.0" y="380.76666666666665" type="curve" smooth="yes"/>
      <point x="415.0" y="437.09133333333335"/>
      <point x="428.0473333333333" y="478.6833333333334"/>
      <point x="458.73333333333335" y="515.5333333333333" type="curve"/>
      <point x="138.3" y="515.5333333333333" type="line"/>
      <point x="122.04133333333334" y="470.956"/>
      <point x="113.03333333333333" y="421.268"/>
      <point x="113.03333333333333" y="362.93333333333334" type="curve" smooth="yes"/>
      <point x="113.03333333333333" y="94.57600000000002"/>
      <point x="304.78599999999994" y="-30.0"/>
      <point x="620.2666666666667" y="-30.0" type="curve" smooth="yes"/>
      <point x="936.4173333333334" y="-30.0"/>
      <point x="1139.8666666666668" y="81.2233333333333"/>
      <point x="1139.8666666666668" y="382.5" type="curve" smooth="yes"/>
    </contour>
  </outline>
</glyph>
<glyph name="rupeeIndian" format="2">
  <advance width="1042"/>
  <unicode hex="20B9"/>
  <outline>
    <contour>
      <point x="19.0" y="899.7666666666667" type="line"/>
      <point x="19.0" y="1071.2333333333333" type="line"/>
      <point x="1004.6666666666666" y="1071.2333333333333" type="line"/>
      <point x="1004.6666666666666" y="899.7666666666667" type="line"/>
    </contour>
    <contour>
      <point x="720.6666666666666" y="0.0" type="line"/>
      <point x="574.6666666666666" y="267.0" type="line" smooth="yes"/>
      <point x="461.4366666666667" y="474.70000000000005"/>
      <point x="363.36333333333334" y="523.348"/>
      <point x="89.33333333333334" y="538.2666666666667" type="curve" smooth="yes"/>
      <point x="19.0" y="543.2666666666667" type="line"/>
      <point x="19.0" y="741.2333333333333" type="line"/>
      <point x="247.83333333333334" y="741.2333333333333" type="line" smooth="yes"/>
      <point x="446.1533333333333" y="741.2333333333333"/>
      <point x="535.4333333333334" y="808.9126666666666"/>
      <point x="535.4333333333334" y="989.5" type="curve" smooth="yes"/>
      <point x="535.4333333333334" y="1132.88"/>
      <point x="476.5733333333334" y="1232.696"/>
      <point x="260.8333333333333" y="1231.2666666666667" type="curve" smooth="yes"/>
      <point x="19.0" y="1231.2666666666667" type="line"/>
      <point x="19.0" y="1456.0" type="line"/>
      <point x="1013.6666666666666" y="1456.0" type="line"/>
      <point x="1013.6666666666666" y="1273.7666666666667" type="line"/>
      <point x="678.6666666666666" y="1273.7666666666667" type="line"/>
      <point x="601.6666666666666" y="1281.2666666666667" type="line"/>
      <point x="650.6666666666666" y="1273.7666666666667" type="line"/>
      <point x="758.5366666666666" y="1234.2366666666667"/>
      <point x="828.4" y="1120.16"/>
      <point x="828.4" y="987.5" type="curve" smooth="yes"/>
      <point x="828.4" y="788.1526666666666"/>
      <point x="726.7733333333333" y="669.5593333333334"/>
      <point x="493.1666666666667" y="642.0" type="curve"/>
      <point x="637.8866666666667" y="600.46"/>
      <point x="755.2693333333333" y="499.0613333333333"/>
      <point x="864.1666666666666" y="317.0" type="curve" smooth="yes"/>
      <point x="1041.6666666666667" y="0.0" type="line"/>
    </contour>
  </outline>
</glyph>
<glyph name="ruble" format="2">
  <advance width="1198"/>
  <unicode hex="20BD"/>
  <outline>
    <contour>
      <point x="561.1666666666666" y="536.2666666666667" type="curve" smooth="yes"/>
      <point x="29.5" y="536.2666666666667" type="line"/>
      <point x="29.5" y="755.7333333333333" type="line"/>
      <point x="533.6666666666666" y="755.7333333333333" type="line" smooth="yes"/>
      <point x="717.9166666666666" y="755.7333333333333"/>
      <point x="788.1666666666666" y="839.9"/>
      <point x="788.1666666666666" y="994.0" type="curve" smooth="yes"/>
      <point x="788.1666666666666" y="1136.71"/>
      <point x="721.9366666666666" y="1233.1253333333334"/>
      <point x="533.6666666666666" y="1230.2666666666667" type="curve" smooth="yes"/>
      <point x="459.73333333333335" y="1230.2666666666667" type="line"/>
      <point x="459.73333333333335" y="0.0" type="line"/>
      <point x="164.0" y="0.0" type="line"/>
      <point x="164.0" y="1456.0" type="line"/>
      <point x="561.6666666666666" y="1456.0" type="line" smooth="yes"/>
      <point x="906.0466666666666" y="1456.0"/>
      <point x="1094.1666666666667" y="1286.95"/>
      <point x="1094.1666666666667" y="995.5" type="curve" smooth="yes"/>
      <point x="1094.1666666666667" y="692.66"/>
      <point x="906.8866666666667" y="537.696"/>
    </contour>
    <contour>
      <point x="752.5" y="394.73333333333335" type="line"/>
      <point x="752.5" y="220.26666666666665" type="line"/>
      <point x="25.0" y="220.26666666666665" type="line"/>
      <point x="25.0" y="394.73333333333335" type="line"/>
    </contour>
  </outline>
</glyph>
<glyph name="dollar.rvrn" format="2">
  <advance width="1203"/>
  <outline>
    <contour>
      <point x="133.38571428571427" y="455.42857142857144" type="curve" smooth="yes"/>
      <point x="133.38571428571427" y="473.70952380952383" type="line"/>
      <point x="423.81904761904764" y="473.70952380952383" type="line"/>
      <point x="423.81904761904764" y="459.42857142857144" type="line" smooth="yes"/>
      <point x="423.81904761904764" y="292.5985714285714"/>
      <point x="507.88428571428574" y="226.88095238095238"/>
      <point x="651.4238095238095" y="226.88095238095238" type="curve" smooth="yes"/>
      <point x="799.2513333333334" y="226.88095238095238"/>
      <point x="873.6619047619048" y="298.24942857142855"/>
      <point x="873.6619047619048" y="429.01428571428573" type="curve" smooth="yes"/>
      <point x="873.6619047619048" y="533.0684761904762"/>
      <point x="858.0141904761905" y="567.2533333333332"/>
      <point x="578.2285714285714" y="621.9380952380952" type="curve" smooth="yes"/>
      <point x="313.94228571428573" y="672.1498095238095"/>
      <point x="144.73333333333335" y="786.0375238095237"/>
      <point x="144.73333333333335" y="1027.6714285714286" type="curve" smooth="yes"/>
      <point x="144.73333333333335" y="1293.3679047619048"/>
      <point x="351.63619047619045" y="1455.4380952380952"/>
      <point x="642.9904761904762" y="1455.4380952380952" type="curve" smooth="yes"/>
      <point x="947.4129523809524" y="1455.4380952380952"/>
      <point x="1139.5142857142857" y="1281.0349523809525"/>
      <point x="1139.5142857142857" y="1010.4761904761905" type="curve" smooth="yes"/>
      <point x="1139.5142857142857" y="993.6952380952381" type="line"/>
      <point x="849.5809523809523" y="993.6952380952381" type="line"/>
      <point x="849.5809523809523" y="1006.9761904761905" type="line" smooth="yes"/>
      <point x="849.5809523809523" y="1149.8010476190477"/>
      <point x="779.6801904761905" y="1232.5238095238096"/>
      <point x="644.5571428571428" y="1232.5238095238096" type="curve" smooth="yes"/>
      <point x="508.2982857142858" y="1232.5238095238096"/>
      <point x="436.73333333333335" y="1174.868476190476"/>
      <point x="436.73333333333335" y="1060.604761904762" type="curve" smooth="yes"/>
      <point x="436.73333333333335" y="932.2965714285714"/>
      <point x="461.3243809523809" y="929.8237142857142"/>
      <point x="739.1" y="870.1809523809524" type="curve" smooth="yes"/>
      <point x="1037.0202857142858" y="803.4808571428572"/>
      <point x="1164.095238095238" y="671.1921904761905"/>
      <point x="1164.095238095238" y="447.51428571428573" type="curve" smooth="yes"/>
      <point x="1164.095238095238" y="166.32485714285713"/>
      <point x="962.3954285714285" y="3.685714285714287"/>
      <point x="651.9238095238095" y="3.685714285714287" type="curve" smooth="yes"/>
      <point x="339.26352380952375" y="3.685714285714287"/>
      <point x="133.38571428571427" y="152.914"/>
    </contour>
    <contour>
      <point x="538.1904761904761" y="-134.38095238095238" type="line"/>
      <point x="538.1904761904761" y="155.76190476190476" type="line"/>
      <point x="762.9142857142857" y="155.76190476190476" type="line"/>
      <point x="762.9142857142857" y="115.11904761904762" type="line"/>
      <point x="775.2904761904762" y="105.61904761904762" type="line"/>
      <point x="775.2904761904762" y="-134.38095238095238" type="line"/>
    </contour>
    <contour>
      <point x="539.5666666666666" y="1292.4285714285713" type="line"/>
      <point x="539.5666666666666" y="1332.5714285714287" type="line"/>
      <point x="526.6904761904761" y="1342.5714285714287" type="line"/>
      <point x="526.6904761904761" y="1621.6190476190477" type="line"/>
      <point x="763.7904761904762" y="1621.6190476190477" type="line"/>
      <point x="763.7904761904762" y="1292.4285714285713" type="line"/>
    </contour>
  </outline>
</glyph>
<glyph name="ghe.bgr" format="2">
  <advance width="951"/>
  <outline>
    <contour>
      <point x="886.6" y="332.5" type="line"/>
      <point x="603.1333333333333" y="331.5" type="line"/>
      <point x="603.1333333333333" y="316.0" type="line" smooth="yes"/>
      <point x="603.1333333333333" y="218.67133333333334"/>
      <point x="558.794" y="164.96666666666667"/>
      <point x="477.3666666666667" y="164.96666666666667" type="curve" smooth="yes"/>
      <point x="394.24199999999996" y="164.96666666666667"/>
      <point x="361.6666666666667" y="213.14666666666665"/>
      <point x="361.6666666666667" y="284.1666666666667" type="curve" smooth="yes"/>
      <point x="361.6666666666667" y="356.8548207704683"/>
      <point x="382.7387751587802" y="404.31834396415155"/>
      <point x="564.8333333333334" y="452.8" type="curve" smooth="yes"/>
      <point x="780.5836970215669" y="507.2656119179327"/>
      <point x="863.5333333333333" y="603.8728327939072"/>
      <point x="863.5333333333333" y="768.5" type="curve" smooth="yes"/>
      <point x="863.5333333333333" y="954.8023642612288"/>
      <point x="743.8613333333333" y="1085.5"/>
      <point x="474.7" y="1085.5" type="curve" smooth="yes"/>
      <point x="234.12533333333334" y="1085.5"/>
      <point x="87.2" y="978.5166666666667"/>
      <point x="87.2" y="740.6666666666666" type="curve" smooth="yes"/>
      <point x="87.2" y="731.1666666666666" type="line"/>
      <point x="369.6666666666667" y="731.1666666666666" type="line"/>
      <point x="369.6666666666667" y="762.7333333333333" type="line" smooth="yes"/>
      <point x="369.6666666666667" y="853.8086666666667"/>
      <point x="403.402" y="889.0333333333333"/>
      <point x="476.7" y="889.0333333333333" type="curve" smooth="yes"/>
      <point x="544.5889488752023" y="889.0333333333333"/>
      <point x="579.4333333333334" y="855.1392913752384"/>
      <point x="579.4333333333334" y="784.8333333333334" type="curve" smooth="yes"/>
      <point x="579.4333333333334" y="715.3468888889365"/>
      <point x="545.2871610633753" y="675.9119292987594"/>
      <point x="385.8" y="628.6333333333333" type="curve" smooth="yes"/>
      <point x="169.78230909569237" y="571.4741326706386"/>
      <point x="72.5" y="481.9243414131374"/>
      <point x="72.5" y="300.26666666666665" type="curve" smooth="yes"/>
      <point x="72.5" y="79.97475289171783"/>
      <point x="214.70066666666668" y="-30.0"/>
      <point x="475.8666666666667" y="-30.0" type="curve" smooth="yes"/>
      <point x="754.7572121211817" y="-30.0"/>
      <point x="886.6" y="91.25466666666665"/>
      <point x="886.6" y="317.0" type="curve" smooth="yes"/>
    </contour>
  </outline>
</glyph>
<glyph name="three.prop" format="2">
  <advance width="1090"/>
  <outline>
    <contour>
      <point x="105.6" y="401.5" type="curve" smooth="yes"/>
      <point x="105.6" y="424.0" type="line"/>
      <point x="403.56666666666666" y="424.0" type="line"/>
      <point x="403.56666666666666" y="403.5" type="line" smooth="yes"/>
      <point x="403.56666666666666" y="272.67133333333334"/>
      <point x="448.1486666666667" y="195.16666666666669"/>
      <point x="545.5666666666666" y="195.16666666666669" type="curve" smooth="yes"/>
      <point x="642.9846666666667" y="195.16666666666669"/>
      <point x="689.0666666666666" y="268.04133333333334"/>
      <point x="689.0666666666666" y="425.0" type="curve" smooth="yes"/>
      <point x="689.0666666666666" y="573.8293333333334"/>
      <point x="634.3199999999999" y="647.6333333333333"/>
      <point x="516.4" y="647.6333333333333" type="curve" smooth="yes"/>
      <point x="400.8333333333333" y="647.6333333333333" type="line"/>
      <point x="400.8333333333333" y="864.3666666666667" type="line"/>
      <point x="508.4666666666667" y="864.3666666666667" type="line" smooth="yes"/>
      <point x="605.7953333333334" y="864.3666666666667"/>
      <point x="651.9666666666667" y="938.3979999999999"/>
      <point x="651.9666666666667" y="1070.5666666666666" type="curve" smooth="yes"/>
      <point x="651.9666666666667" y="1194.6060000000002"/>
      <point x="617.9926666666668" y="1260.8333333333333"/>
      <point x="539.0666666666666" y="1260.8333333333333" type="curve" smooth="yes"/>
      <point x="461.48066666666665" y="1260.8333333333333"/>
      <point x="423.73333333333335" y="1194.7886666666668"/>
      <point x="423.73333333333335" y="1072.0" type="curve" smooth="yes"/>
      <point x="423.73333333333335" y="1056.5" type="line"/>
      <point x="126.76666666666667" y="1056.5" type="line"/>
      <point x="126.76666666666667" y="1071.0" type="line" smooth="yes"/>
      <point x="126.76666666666667" y="1302.82"/>
      <point x="279.228" y="1486.0"/>
      <point x="546.0666666666666" y="1486.0" type="curve" smooth="yes"/>
      <point x="827.0646666666667" y="1486.0"/>
      <point x="955.9333333333334" y="1315.8600000000001"/>
      <point x="955.9333333333334" y="1109.5" type="curve" smooth="yes"/>
      <point x="955.9333333333334" y="950.71"/>
      <point x="895.9433333333334" y="824.96"/>
      <point x="759.9333333333334" y="766.0" type="curve"/>
      <point x="759.9333333333334" y="762.0" type="line"/>
      <point x="907.244" y="722.47"/>
      <point x="996.5333333333333" y="594.07"/>
      <point x="996.5333333333333" y="412.5" type="curve" smooth="yes"/>
      <point x="996.5333333333333" y="138.46999999999997"/>
      <point x="835.1966666666666" y="-29.5"/>
      <point x="541.0666666666666" y="-29.5" type="curve" smooth="yes"/>
      <point x="254.9766666666667" y="-29.5"/>
      <point x="105.6" y="144.21999999999997"/>
    </contour>
  </outline>
</glyph>
<glyph name="ve.bgr" format="2">
  <advance width="1091"/>
  <outline>
    <contour>
      <point x="113.5" y="400.0" type="curve" smooth="yes"/>
      <point x="113.5" y="1151.5" type="line" smooth="yes"/>
      <point x="113.5" y="1421.912"/>
      <point x="262.77000000000004" y="1551.0"/>
      <point x="525.6333333333333" y="1551.0" type="curve" smooth="yes"/>
      <point x="783.0473333333334" y="1551.0"/>
      <point x="927.5966666666667" y="1402.7633333333335"/>
      <point x="928.2666666666667" y="1160.0" type="curve" smooth="yes"/>
      <point x="928.9366666666666" y="997.86"/>
      <point x="848.252" y="863.4413333333333"/>
      <point x="692.6333333333333" y="806.0" type="curve"/>
      <point x="692.6333333333333" y="802.0" type="line"/>
      <point x="873.6673333333333" y="769.2593333333334"/>
      <point x="980.2666666666667" y="640.81"/>
      <point x="980.2666666666667" y="411.0" type="curve" smooth="yes"/>
      <point x="980.2666666666667" y="122.89999999999998"/>
      <point x="817.5913333333334" y="-30.0"/>
      <point x="544.6333333333333" y="-30.0" type="curve" smooth="yes"/>
      <point x="262.38466666666665" y="-30.0"/>
      <point x="113.5" y="133.33999999999997"/>
    </contour>
    <contour>
      <point x="522.6333333333333" y="1336.7666666666667" type="curve" smooth="yes"/>
      <point x="435.45774358975734" y="1336.7666666666667"/>
      <point x="401.9666666666667" y="1273.1461499492625"/>
      <point x="401.9666666666667" y="1171.0" type="curve" smooth="yes"/>
      <point x="401.9666666666667" y="890.0" type="line"/>
      <point x="468.6333333333333" y="890.0" type="line" smooth="yes"/>
      <point x="592.6328288288017" y="890.0"/>
      <point x="637.3" y="972.5973333333333"/>
      <point x="637.3" y="1125.0" type="curve" smooth="yes"/>
      <point x="637.3" y="1262.3264356954987"/>
      <point x="609.719739130461" y="1336.7666666666667"/>
    </contour>
    <contour>
      <point x="401.9666666666667" y="410.0" type="line" smooth="yes"/>
      <point x="401.9666666666667" y="255.63906954441381"/>
      <point x="451.0566666666667" y="184.23333333333335"/>
      <point x="544.6333333333333" y="184.23333333333335" type="curve" smooth="yes"/>
      <point x="638.21" y="184.23333333333335"/>
      <point x="687.3" y="256.068"/>
      <point x="687.3" y="430.0" type="curve" smooth="yes"/>
      <point x="687.3" y="592.0953333333334"/>
      <point x="638.6426666666667" y="693.0"/>
      <point x="453.6333333333333" y="693.0" type="curve" smooth="yes"/>
      <point x="401.9666666666667" y="693.0" type="line"/>
    </contour>
  </outline>
</glyph>
